inDegrees=no
num_controls=7
num_derivatives=13
num_iterations=192
num_multipliers=7
num_parameters=0
num_slacks=7
num_states=26
objective=5.927697
objective_accelerations=0.554754
objective_balance=0.053167
objective_effort=0.500385
objective_height=4.748742
objective_ligament=0.070650
solver_duration=1981.283454
status=Solve_Succeeded
success=true
DataType=double
version=3
OpenSimVersion=4.4-2022-07-23-0e9fedc
endheader
time	/jointset/ground_pelvis/pelvis_tilt/value	/jointset/ground_pelvis/pelvis_tx/value	/jointset/ground_pelvis/pelvis_ty/value	/jointset/hip_l/hip_flexion_l/value	/jointset/hip_l/hip_adduction_l/value	/jointset/hip_l/hip_rotation_l/value	/jointset/back/lumbar_extension/value	/jointset/patellofemoral_l/patellar_flexion_l/value	/jointset/knee_l/knee_flexion_l/value	/jointset/knee_l/knee_adduction_l/value	/jointset/knee_l/knee_rotation_l/value	/jointset/ankle_l/ankle_angle_l/value	/jointset/subtalar_l/subtalar_angle_l/value	/jointset/ground_pelvis/pelvis_tilt/speed	/jointset/ground_pelvis/pelvis_tx/speed	/jointset/ground_pelvis/pelvis_ty/speed	/jointset/hip_l/hip_flexion_l/speed	/jointset/hip_l/hip_adduction_l/speed	/jointset/hip_l/hip_rotation_l/speed	/jointset/back/lumbar_extension/speed	/jointset/patellofemoral_l/patellar_flexion_l/speed	/jointset/knee_l/knee_flexion_l/speed	/jointset/knee_l/knee_adduction_l/speed	/jointset/knee_l/knee_rotation_l/speed	/jointset/ankle_l/ankle_angle_l/speed	/jointset/subtalar_l/subtalar_angle_l/speed	/forceset/tau_hip_flexion_l	/forceset/tau_hip_adduction_l	/forceset/tau_hip_rotation_l	/forceset/tau_knee_flexion_l	/forceset/tau_ankle_angle_l	/forceset/tau_subtalar_angle_l	/forceset/tau_lumbar_extension	lambda_cid13_p0	lambda_cid13_p1	lambda_cid13_p2	lambda_cid13_p3	lambda_cid13_p4	lambda_cid13_p5	lambda_cid14_p0	/jointset/ground_pelvis/pelvis_tilt/accel	/jointset/ground_pelvis/pelvis_tx/accel	/jointset/ground_pelvis/pelvis_ty/accel	/jointset/hip_l/hip_flexion_l/accel	/jointset/hip_l/hip_adduction_l/accel	/jointset/hip_l/hip_rotation_l/accel	/jointset/back/lumbar_extension/accel	/jointset/patellofemoral_l/patellar_flexion_l/accel	/jointset/knee_l/knee_flexion_l/accel	/jointset/knee_l/knee_adduction_l/accel	/jointset/knee_l/knee_rotation_l/accel	/jointset/ankle_l/ankle_angle_l/accel	/jointset/subtalar_l/subtalar_angle_l/accel	gamma_cid13_p0	gamma_cid13_p1	gamma_cid13_p2	gamma_cid13_p3	gamma_cid13_p4	gamma_cid13_p5	gamma_cid14_p0
1	-0.1367076322446837	-0.06143710066379931	0.6823749273906002	1.350716664544934	-0.3276226014195588	0.06679654005375024	-0.9599310442729777	1.381970661061646	1.381970661061647	-0.06608542904986892	-0.1745325057477946	0.2642521382086254	0.05905435597469109	0.104257322408274	0.02502279553988416	0.07049138784865733	-0.2989244739917932	-0.006717171102921008	-0.06521613980651982	-2.968438751098587e-05	-0.1622489876909518	-0.162248987690971	-0.00196717895143329	-8.223233576521032e-06	0.02352652418395619	0.002461322147239011	-0.3929844213997362	0.01520238247823079	0.0002567016010893358	-0.353222617925999	0.02869172745666428	0.03038651488270799	0.4349165047064152	-41.74324406514002	-5.467250435770112	-0.06318833451296356	14.59278368905399	-799.8215144737059	-70.04326338137818	-0.04184528868134797	0.9449703765587005	-0.007563113280784199	1.537606072964494	-5.06215918131834	-0.1258850973703781	-1.643418468333703	-0.01039217090664441	-4.943083706493497	-4.943083706493534	-0.3474136657342496	-0.0187909225355932	-1.175472344304667	-0.6434699799243238	-9.706236301578186e-09	1.354164711454646e-08	6.311418914674126e-08	5.18933585936498e-09	-2.41811450655253e-08	1.202026713104108e-07	-1.710841468297597e-08
1.01	-0.1356181746795245	-0.06118716855728901	0.6831565045582424	1.347475148664352	-0.3276952783229301	0.06606148741629542	-0.9599310885968813	1.380101431557613	1.380101431557615	-0.06612058838642029	-0.1745325336166423	0.2644288127652706	0.0590479185975212	0.1136380645348044	0.02497310208522068	0.08581294851786415	-0.3493649297067833	-0.007809148018356534	-0.0817862500718486	4.781702919354364e-05	-0.2115858475566765	-0.2115858475566998	-0.00506230855660204	1.975076603280552e-06	0.01180311994409008	-0.003739237219643174	-0.3922639932537317	0.01536173847868304	0.0001872272207691572	-0.3529874035433237	0.02864877728493215	0.03054921669280489	0.4346655606956871	-41.7203245154005	-5.556919557065983	-0.03176503517134432	14.3897361027377	-799.505401146143	-70.14218640944944	-0.04187656247013457	0.9352050996404904	-0.002248182607496035	1.527760224882575	-5.032925870333315	-0.09950159137943432	-1.662604921952681	0.02087652667484292	-4.92732263609886	-4.927322636099404	-0.290217278137602	0.01084604247449433	-1.17156512848713	-0.6069264025636472	-1.744647289266294e-08	6.303573224695318e-09	9.054393698264627e-08	1.406280761217546e-08	-3.125224296077624e-08	1.4003069084713e-07	-2.322166432051709e-08
1.02	-0.1344347938993111	-0.06093744852953495	0.6840909631647736	1.343729640805897	-0.327778604516001	0.06516097415292678	-0.9599295472351888	1.377739166353025	1.377739166353013	-0.06618662995307123	-0.174532475335446	0.2644880951465854	0.05897976012918397	0.1230419654189518	0.02498037978863493	0.1010676756264389	-0.3997228695715253	-0.008847029043768139	-0.09830826498998504	0.000287527594532522	-0.2608561278018774	-0.2608561278019045	-0.008143624970944034	9.006773972965431e-06	4.80891178411478e-05	-0.009882896086264571	-0.3915435651076312	0.01552109447915739	0.0001177528403988174	-0.3527521891606449	0.02860582711318752	0.03071191850292628	0.4344146166850436	-41.70900112634087	-5.642891302449331	-0.002835401664596748	14.2442446781861	-799.336402935013	-70.21621203377737	-0.04190664135970319	0.9496021280820728	0.003831118334763852	1.524239360838084	-5.045656011268687	-0.1150659193655909	-1.633799398895232	0.02204965882046686	-4.929767782388724	-4.929767782388745	-0.3446510275689025	-0.0194242450976127	-1.181797661581228	-0.6320898798721644	-2.437285173003959e-08	-4.160079643252317e-09	1.174038431697803e-07	1.975637554558554e-08	-3.760048957764392e-08	1.565216929186964e-07	-2.957402003944752e-08
1.03	-0.1331578808880529	-0.06068713446506637	0.6851775653861963	1.339481449692638	-0.3278720148080255	0.06409556349881809	-0.9599226660103267	1.374884657084561	1.374884657084556	-0.06628342452560913	-0.1745323315251973	0.2644299565330273	0.05885061753975758	0.1322828288429169	0.02511586685583996	0.1162349399473123	-0.449854892161839	-0.009825851383853086	-0.1147615769285686	0.001328723441897274	-0.3100227715643678	-0.3100227715644006	-0.01121349229670584	1.730931247483757e-05	-0.01165251279397705	-0.01592241342875628	-0.3922377528517218	0.01580597662102581	1.087155864810543e-05	-0.3520197747382448	0.02849906341959372	0.03099223677681365	0.4358893594871542	-41.74308753118497	-5.786343685110358	0.0516503258957165	13.63754915536029	-799.9969566629491	-70.29812008246498	-0.04194353947228265	0.9026545376653264	0.02342768133970883	1.510286834394781	-4.987910257526469	-0.08792621821852907	-1.649282841296852	0.18115545706866	-4.906662299925158	-4.906662299925968	-0.2879039890480017	0.01062404190054449	-1.160698897722203	-0.5864158326596195	-3.129092589646003e-08	-1.465664658240503e-08	1.442579346462126e-07	2.541749548083846e-08	-4.394136016105869e-08	1.729786437916388e-07	-3.592881561635131e-08
